<?xml version='1.0' encoding='UTF-8'?>
<svg xmlns="http://www.w3.org/2000/svg" width="985px" height="530px" viewBox="0 0 985 530" role="img" aria-label="Huynh Thanh Binh GitHub profile">
<style>
@font-face { src: local('Consolas'), local('Consolas Bold'); font-family: 'ConsolasFallback'; font-display: swap; }
text, tspan { white-space: pre; font-family: 'ConsolasFallback', Consolas, 'Liberation Mono', monospace; }
.header { font-size: 16px; fill: #24292f; }
.ascii { font-size: 12.5px; fill: #24292f; }
.key { fill: #953800; }
.value { fill: #0a3069; }
.dim { fill: #afbfd0; }
.section { fill: #24292f; }
</style>
<rect width="985px" height="530px" fill="#f6f8fa" rx="15" />
<rect x="10" y="85" width="360" height="360" rx="22" fill="#ffffff" stroke="#d0d7de" />
<text x="190" y="98.2" text-anchor="middle" class="ascii">
<tspan x="190" y="98.2">&amp;&amp;X;;;;+++++++$&amp;&amp;&amp;&amp;&amp;&amp;&amp;&amp;&amp;&amp;&amp;&amp;&amp;&amp;&amp;&amp;&amp;&amp;&amp;&amp;&amp;&amp;&amp;&amp;&amp;&amp;x;+</tspan>
<tspan x="190" y="112.8">&amp;&amp;X++x+++++++x&amp;&amp;&amp;&amp;&amp;&amp;&amp;&amp;&amp;&amp;&amp;&amp;&amp;&amp;&amp;&amp;&amp;&amp;&amp;&amp;&amp;&amp;&amp;&amp;&amp;&amp;&amp;+:;</tspan>
<tspan x="190" y="127.2">&amp;&amp;X++x+x++++;;X$&amp;$$&amp;&amp;&amp;&amp;&amp;&amp;&amp;&amp;&amp;&amp;&amp;&amp;&amp;&amp;&amp;&amp;&amp;&amp;&amp;&amp;&amp;&amp;x:;</tspan>
<tspan x="190" y="141.8">&amp;&amp;X++++++++++;++:;;+++x$$&amp;&amp;&amp;&amp;&amp;&amp;&amp;&amp;&amp;&amp;&amp;&amp;&amp;&amp;&amp;&amp;x;;</tspan>
<tspan x="190" y="156.2">$$X+++;;;++++;;:.....:::;+X$&amp;&amp;&amp;&amp;&amp;&amp;&amp;&amp;&amp;&amp;&amp;&amp;&amp;x;;</tspan>
<tspan x="190" y="170.8">+++;;+++xxxxx+:........::;xX$$$$&amp;&amp;&amp;&amp;&amp;&amp;&amp;&amp;&amp;x;;</tspan>
<tspan x="190" y="185.2">+xxxxx++++++x+......:::::+xXXX$$$&amp;&amp;&amp;&amp;&amp;&amp;&amp;Xx;+</tspan>
<tspan x="190" y="199.8">++++++++++++x$XXXx++;;:::;+xX$X$$$&amp;&amp;&amp;&amp;&amp;xxXx+</tspan>
<tspan x="190" y="214.2">++++++++++++x$X+;xx+;;;;;;;xXX$$$$$&amp;&amp;&amp;xxXXXX</tspan>
<tspan x="190" y="228.8">;+;;;;++++++;:X;;XXXx++X$$$$&amp;$$$$$&amp;&amp;&amp;Xx$&amp;$$X</tspan>
<tspan x="190" y="243.2">++;+;;+++++.:;;;:x::::::;;+xXXx++x$&amp;$xx&amp;&amp;$xx</tspan>
<tspan x="190" y="257.8">;;;;+;+++++;::;:....:::;+++xx+++::;$xxX$&amp;&amp;&amp;&amp;</tspan>
<tspan x="190" y="272.2">;;;;;;X&amp;&amp;&amp;&amp;X:.:.....::;;++++++x+::XXxxxxx$$&amp;</tspan>
<tspan x="190" y="286.8">;;;;;+&amp;&amp;&amp;&amp;&amp;$+::...:::;++++x++:;;+&amp;&amp;&amp;&amp;&amp;X$&amp;$$x</tspan>
<tspan x="190" y="301.2">;;;;;+$&amp;$$&amp;$;;;:::::;;+++xxxxXXX&amp;&amp;&amp;&amp;&amp;&amp;&amp;&amp;&amp;$$$</tspan>
<tspan x="190" y="315.8">++++xxX$&amp;$&amp;$;.:::::;;;++xxxxxxXxX&amp;&amp;&amp;&amp;&amp;&amp;&amp;&amp;&amp;&amp;&amp;</tspan>
<tspan x="190" y="330.2">++++x$$$&amp;$&amp;$$x;:;;+++xxxx++xxXx:x$&amp;&amp;&amp;&amp;&amp;&amp;&amp;&amp;&amp;&amp;</tspan>
<tspan x="190" y="344.8">+xxxX$$$&amp;$$$$$:::x;:;++++++xx;.:x$$&amp;&amp;&amp;&amp;&amp;&amp;&amp;&amp;&amp;</tspan>
<tspan x="190" y="359.2">xxxX$$$$&amp;$$$$$...+;::;;;+++x:..;X$$$$&amp;&amp;&amp;&amp;&amp;&amp;&amp;</tspan>
<tspan x="190" y="373.8">++$$$&amp;$$&amp;$$$$$X.:x+;;;;;;;;:...+$$$$$&amp;$&amp;&amp;&amp;&amp;&amp;&amp;</tspan>
<tspan x="190" y="388.2">x$&amp;$$$&amp;$&amp;$$$$$+.;xx+;;;;;:....:X$$$$$&amp;$&amp;&amp;&amp;&amp;&amp;&amp;</tspan>
<tspan x="190" y="402.8">X&amp;&amp;$&amp;&amp;&amp;&amp;&amp;$$$$$..+xx+;;;:......:X$$$$&amp;$$&amp;&amp;&amp;&amp;&amp;&amp;</tspan>
<tspan x="190" y="417.2">X&amp;&amp;$&amp;&amp;&amp;&amp;&amp;&amp;$$$+..:xx+;;........:$$$$$&amp;&amp;$&amp;&amp;&amp;&amp;&amp;&amp;</tspan>
<tspan x="190" y="431.8">$$&amp;$$&amp;&amp;&amp;&amp;&amp;$$X......+:.........;$$$$&amp;&amp;&amp;&amp;&amp;&amp;&amp;&amp;&amp;&amp;</tspan>
</text>
<text x="390" y="30" class="header"><tspan>htb95@mobile</tspan><tspan class="dim">  ----------------------------------------------</tspan></text>
<text x="390" y="50" class="dim">. </text><text x="410" y="50" class="key">Role</text><text x="446" y="50" class="dim">:</text><text x="558" y="50" class="dim">..........</text><text x="640" y="50" class="value">AI Researcher - Mobile Developer</text>
<text x="390" y="70" class="dim">. </text><text x="410" y="70" class="key">Experience</text><text x="500" y="70" class="dim">:</text><text x="558" y="70" class="dim">..........</text><text x="640" y="70" class="value">Mobile development (2016-2024)</text>
<text x="390" y="90" class="dim">. </text><text x="410" y="90" class="key">Focus</text><text x="455" y="90" class="dim">:</text><text x="558" y="90" class="dim">..........</text><text x="640" y="90" class="value">Android / iOS / cross-platform</text>
<text x="390" y="110" class="dim">. </text><text x="410" y="110" class="key">Platforms</text><text x="491" y="110" class="dim">:</text><text x="558" y="110" class="dim">..........</text><text x="640" y="110" class="value">Android / iOS / Wear OS</text>
<text x="390" y="130" class="dim">. </text><text x="410" y="130" class="key">Frameworks</text><text x="500" y="130" class="dim">:</text><text x="558" y="130" class="dim">..........</text><text x="640" y="130" class="value">Flutter / React Native</text>
<text x="390" y="150" class="dim">. </text><text x="410" y="150" class="key">Connectivity</text><text x="518" y="150" class="dim">:</text><text x="558" y="150" class="dim">..........</text><text x="640" y="150" class="value">BLE / Firebase</text>
<text x="390" y="170" class="dim">. </text><text x="410" y="170" class="key">ML Tools</text><text x="482" y="170" class="dim">:</text><text x="558" y="170" class="dim">..........</text><text x="640" y="170" class="value">ML Vision / Google ML Kit</text>
<text x="390" y="210" class="section">- Selected Work</text><text x="535" y="210" class="dim">-------------------------------------------------</text>
<text x="390" y="230" class="dim">. </text><text x="410" y="230" class="key">BLE Access</text><text x="500" y="230" class="dim">:</text><text x="558" y="230" class="dim">..........</text><text x="640" y="230" class="value">SmartKey doors + BLE lockers</text>
<text x="390" y="250" class="dim">. </text><text x="410" y="250" class="key">Card Scan</text><text x="491" y="250" class="dim">:</text><text x="558" y="250" class="dim">..........</text><text x="640" y="250" class="value">ML Vision + Firebase</text>
<text x="390" y="270" class="dim">. </text><text x="410" y="270" class="key">Barcodes</text><text x="482" y="270" class="dim">:</text><text x="558" y="270" class="dim">..........</text><text x="640" y="270" class="value">Google ML Kit multi-scan</text>
<text x="390" y="290" class="dim">. </text><text x="410" y="290" class="key">Commerce</text><text x="482" y="290" class="dim">:</text><text x="558" y="290" class="dim">..........</text><text x="640" y="290" class="value">Shopping apps / seller-app tuning</text>
<text x="390" y="330" class="section">- Education</text><text x="535" y="330" class="dim">-------------------------------------------------</text>
<text x="390" y="350" class="dim">. </text><text x="410" y="350" class="key">Program</text><text x="473" y="350" class="dim">:</text><text x="558" y="350" class="dim">..........</text><text x="640" y="350" class="value">Software Engineering</text>
<text x="390" y="370" class="dim">. </text><text x="410" y="370" class="key">Institution</text><text x="509" y="370" class="dim">:</text><text x="558" y="370" class="dim">..........</text><text x="640" y="370" class="value">University of Science HCMC</text>
<text x="390" y="390" class="dim">. </text><text x="410" y="390" class="key">Department</text><text x="500" y="390" class="dim">:</text><text x="558" y="390" class="dim">..........</text><text x="640" y="390" class="value">Computer Center</text>
<text x="390" y="410" class="dim">. </text><text x="410" y="410" class="key">Period / GPA</text><text x="518" y="410" class="dim">:</text><text x="558" y="410" class="dim">..........</text><text x="640" y="410" class="value">Feb 2015-Feb 2016 / 9.0/10</text>
<text x="390" y="430" class="dim">. </text><text x="410" y="430" class="key">Certificates</text><text x="518" y="430" class="dim">:</text><text x="558" y="430" class="dim">..........</text><text x="640" y="430" class="value">iOS (2016) / Android (2015)</text>
<text x="390" y="470" class="section">- Focus Areas</text><text x="535" y="470" class="dim">-------------------------------------------------</text>
<text x="390" y="490" class="dim">. </text><text x="410" y="490" class="key">Focus</text><text x="473" y="490" class="dim">:</text><text x="558" y="490" class="dim">........</text><text x="630" y="490" class="value">AI Researcher / Full Stack Developer</text>
<text x="390" y="510" class="dim">. </text><text x="410" y="510" class="key">Website</text><text x="473" y="510" class="dim">:</text><text x="558" y="510" class="dim">..........</text><text x="640" y="510" class="value">htb95.pages.dev</text>
</svg>